<mxfile host="app.diagrams.net" modified="2023-11-22T22:32:00.169Z" agent="Mozilla/5.0 (Windows NT 10.0; Win64; x64) AppleWebKit/537.36 (KHTML, like Gecko) Chrome/119.0.0.0 Safari/537.36" etag="tK94xoa55BTvEGeV1k3-" version="22.1.3" type="device">
  <diagram name="Page-1" id="TmUAgMcOSbgSIMeHHVG7">
    <mxGraphModel dx="1173" dy="637" grid="1" gridSize="10" guides="1" tooltips="1" connect="1" arrows="1" fold="1" page="1" pageScale="1" pageWidth="827" pageHeight="1169" math="0" shadow="0">
      <root>
        <mxCell id="0" />
        <mxCell id="1" parent="0" />
        <mxCell id="QFt0IGW34_CqtT6Z_yx7-3" style="edgeStyle=orthogonalEdgeStyle;rounded=0;orthogonalLoop=1;jettySize=auto;html=1;exitX=1;exitY=0.5;exitDx=0;exitDy=0;entryX=0;entryY=0.5;entryDx=0;entryDy=0;endArrow=none;endFill=0;" edge="1" parent="1" source="QFt0IGW34_CqtT6Z_yx7-1" target="QFt0IGW34_CqtT6Z_yx7-2">
          <mxGeometry relative="1" as="geometry" />
        </mxCell>
        <mxCell id="QFt0IGW34_CqtT6Z_yx7-19" value="&lt;font style=&quot;font-size: 18px;&quot;&gt;1,N&lt;/font&gt;" style="edgeLabel;html=1;align=center;verticalAlign=middle;resizable=0;points=[];" vertex="1" connectable="0" parent="QFt0IGW34_CqtT6Z_yx7-3">
          <mxGeometry x="0.767" y="-1" relative="1" as="geometry">
            <mxPoint y="-1" as="offset" />
          </mxGeometry>
        </mxCell>
        <mxCell id="QFt0IGW34_CqtT6Z_yx7-20" value="&lt;font style=&quot;font-size: 18px;&quot;&gt;1,1&lt;/font&gt;" style="edgeLabel;html=1;align=center;verticalAlign=middle;resizable=0;points=[];" vertex="1" connectable="0" parent="QFt0IGW34_CqtT6Z_yx7-3">
          <mxGeometry x="-0.8859" y="5" relative="1" as="geometry">
            <mxPoint x="2" as="offset" />
          </mxGeometry>
        </mxCell>
        <mxCell id="QFt0IGW34_CqtT6Z_yx7-21" style="edgeStyle=orthogonalEdgeStyle;rounded=0;orthogonalLoop=1;jettySize=auto;html=1;exitX=0.5;exitY=1;exitDx=0;exitDy=0;entryX=0;entryY=0.5;entryDx=0;entryDy=0;endArrow=none;endFill=0;" edge="1" parent="1" source="QFt0IGW34_CqtT6Z_yx7-1" target="QFt0IGW34_CqtT6Z_yx7-4">
          <mxGeometry relative="1" as="geometry" />
        </mxCell>
        <mxCell id="QFt0IGW34_CqtT6Z_yx7-22" value="&lt;font style=&quot;font-size: 18px;&quot;&gt;1,1&lt;/font&gt;" style="edgeLabel;html=1;align=center;verticalAlign=middle;resizable=0;points=[];" vertex="1" connectable="0" parent="QFt0IGW34_CqtT6Z_yx7-21">
          <mxGeometry x="-0.8028" relative="1" as="geometry">
            <mxPoint as="offset" />
          </mxGeometry>
        </mxCell>
        <mxCell id="QFt0IGW34_CqtT6Z_yx7-23" value="&lt;font style=&quot;font-size: 18px;&quot;&gt;1,N&lt;/font&gt;" style="edgeLabel;html=1;align=center;verticalAlign=middle;resizable=0;points=[];" vertex="1" connectable="0" parent="QFt0IGW34_CqtT6Z_yx7-21">
          <mxGeometry x="0.7639" y="-2" relative="1" as="geometry">
            <mxPoint as="offset" />
          </mxGeometry>
        </mxCell>
        <mxCell id="QFt0IGW34_CqtT6Z_yx7-1" value="&lt;font style=&quot;font-size: 18px;&quot;&gt;Filiere&lt;/font&gt;" style="swimlane;whiteSpace=wrap;html=1;startSize=30;" vertex="1" parent="1">
          <mxGeometry x="47.5" y="100" width="245" height="250" as="geometry" />
        </mxCell>
        <mxCell id="QFt0IGW34_CqtT6Z_yx7-9" value="&lt;font style=&quot;font-size: 18px;&quot;&gt;id: INT&lt;br&gt;nom : VARCHAR&lt;br&gt;description : VARCHAR&lt;br&gt;&lt;/font&gt;" style="text;html=1;align=left;verticalAlign=middle;resizable=0;points=[];autosize=1;strokeColor=none;fillColor=none;" vertex="1" parent="QFt0IGW34_CqtT6Z_yx7-1">
          <mxGeometry x="22.5" y="85" width="210" height="80" as="geometry" />
        </mxCell>
        <mxCell id="QFt0IGW34_CqtT6Z_yx7-2" value="&lt;font style=&quot;font-size: 18px;&quot;&gt;Cour&lt;/font&gt;" style="swimlane;whiteSpace=wrap;html=1;startSize=30;" vertex="1" parent="1">
          <mxGeometry x="570" y="100" width="270" height="250" as="geometry" />
        </mxCell>
        <mxCell id="QFt0IGW34_CqtT6Z_yx7-11" value="&lt;font style=&quot;font-size: 17px;&quot;&gt;id: INT&lt;br&gt;id_filiere : INT (FOREIGN KEY)&lt;br style=&quot;border-color: var(--border-color);&quot;&gt;&lt;span style=&quot;&quot;&gt;nom : VARCHAR&lt;/span&gt;&lt;br style=&quot;border-color: var(--border-color);&quot;&gt;&lt;span style=&quot;&quot;&gt;description : VARCHAR&lt;/span&gt;&lt;/font&gt;" style="text;html=1;align=left;verticalAlign=middle;resizable=0;points=[];autosize=1;strokeColor=none;fillColor=none;" vertex="1" parent="QFt0IGW34_CqtT6Z_yx7-2">
          <mxGeometry x="10" y="75" width="260" height="100" as="geometry" />
        </mxCell>
        <mxCell id="QFt0IGW34_CqtT6Z_yx7-35" style="edgeStyle=orthogonalEdgeStyle;rounded=0;orthogonalLoop=1;jettySize=auto;html=1;exitX=1;exitY=0.75;exitDx=0;exitDy=0;entryX=0.5;entryY=0;entryDx=0;entryDy=0;" edge="1" parent="1" source="QFt0IGW34_CqtT6Z_yx7-4" target="QFt0IGW34_CqtT6Z_yx7-8">
          <mxGeometry relative="1" as="geometry" />
        </mxCell>
        <mxCell id="QFt0IGW34_CqtT6Z_yx7-36" value="&lt;font style=&quot;font-size: 18px;&quot;&gt;1,N&lt;/font&gt;" style="edgeLabel;html=1;align=center;verticalAlign=middle;resizable=0;points=[];" vertex="1" connectable="0" parent="QFt0IGW34_CqtT6Z_yx7-35">
          <mxGeometry x="0.7794" relative="1" as="geometry">
            <mxPoint y="1" as="offset" />
          </mxGeometry>
        </mxCell>
        <mxCell id="QFt0IGW34_CqtT6Z_yx7-37" value="&lt;font style=&quot;font-size: 18px;&quot;&gt;1,1&lt;/font&gt;" style="edgeLabel;html=1;align=center;verticalAlign=middle;resizable=0;points=[];" vertex="1" connectable="0" parent="QFt0IGW34_CqtT6Z_yx7-35">
          <mxGeometry x="-0.8333" y="-2" relative="1" as="geometry">
            <mxPoint as="offset" />
          </mxGeometry>
        </mxCell>
        <mxCell id="QFt0IGW34_CqtT6Z_yx7-4" value="&lt;font style=&quot;font-size: 18px;&quot;&gt;User&lt;/font&gt;" style="swimlane;whiteSpace=wrap;html=1;startSize=30;" vertex="1" parent="1">
          <mxGeometry x="290" y="370" width="290" height="200" as="geometry" />
        </mxCell>
        <mxCell id="QFt0IGW34_CqtT6Z_yx7-24" style="edgeStyle=orthogonalEdgeStyle;rounded=0;orthogonalLoop=1;jettySize=auto;html=1;endArrow=none;endFill=0;" edge="1" parent="QFt0IGW34_CqtT6Z_yx7-4" source="QFt0IGW34_CqtT6Z_yx7-12">
          <mxGeometry relative="1" as="geometry">
            <mxPoint x="440" y="-20" as="targetPoint" />
          </mxGeometry>
        </mxCell>
        <mxCell id="QFt0IGW34_CqtT6Z_yx7-25" value="&lt;font style=&quot;font-size: 18px;&quot;&gt;1,N&lt;/font&gt;" style="edgeLabel;html=1;align=center;verticalAlign=middle;resizable=0;points=[];" vertex="1" connectable="0" parent="QFt0IGW34_CqtT6Z_yx7-24">
          <mxGeometry x="-0.8455" relative="1" as="geometry">
            <mxPoint x="17" as="offset" />
          </mxGeometry>
        </mxCell>
        <mxCell id="QFt0IGW34_CqtT6Z_yx7-26" value="&lt;font style=&quot;font-size: 18px;&quot;&gt;1,,N&lt;/font&gt;" style="edgeLabel;html=1;align=center;verticalAlign=middle;resizable=0;points=[];" vertex="1" connectable="0" parent="QFt0IGW34_CqtT6Z_yx7-24">
          <mxGeometry x="0.7933" relative="1" as="geometry">
            <mxPoint as="offset" />
          </mxGeometry>
        </mxCell>
        <mxCell id="QFt0IGW34_CqtT6Z_yx7-7" value="&lt;font style=&quot;font-size: 18px;&quot;&gt;Actualite&lt;/font&gt;" style="swimlane;whiteSpace=wrap;html=1;startSize=30;" vertex="1" parent="1">
          <mxGeometry x="30" y="630" width="200" height="220" as="geometry" />
        </mxCell>
        <mxCell id="QFt0IGW34_CqtT6Z_yx7-13" value="&lt;font style=&quot;font-size: 18px;&quot;&gt;id : INT&lt;br&gt;titre : VARCHAR&lt;br&gt;text : TEXT&lt;br&gt;date : DATETIME&amp;nbsp;&lt;/font&gt;" style="text;html=1;align=left;verticalAlign=middle;resizable=0;points=[];autosize=1;strokeColor=none;fillColor=none;" vertex="1" parent="QFt0IGW34_CqtT6Z_yx7-7">
          <mxGeometry x="17.5" y="60" width="170" height="100" as="geometry" />
        </mxCell>
        <mxCell id="QFt0IGW34_CqtT6Z_yx7-8" value="&lt;font style=&quot;font-size: 18px;&quot;&gt;Commentaire&lt;/font&gt;" style="swimlane;whiteSpace=wrap;html=1;startSize=35;" vertex="1" parent="1">
          <mxGeometry x="610" y="625" width="250" height="230" as="geometry" />
        </mxCell>
        <mxCell id="QFt0IGW34_CqtT6Z_yx7-15" value="&lt;div style=&quot;text-align: left; font-size: 18px;&quot;&gt;&lt;span style=&quot;background-color: initial;&quot;&gt;&lt;font style=&quot;font-size: 18px;&quot;&gt;id : INT&lt;/font&gt;&lt;/span&gt;&lt;/div&gt;&lt;div style=&quot;text-align: left; font-size: 18px;&quot;&gt;&lt;span style=&quot;background-color: initial;&quot;&gt;&lt;font style=&quot;font-size: 18px;&quot;&gt;id_user : INT FOREIGN KEY&lt;/font&gt;&lt;/span&gt;&lt;/div&gt;&lt;div style=&quot;text-align: left; font-size: 18px;&quot;&gt;&lt;span style=&quot;background-color: initial;&quot;&gt;&lt;font style=&quot;font-size: 18px;&quot;&gt;id_actu : INT FOREIGN KEY&lt;/font&gt;&lt;/span&gt;&lt;/div&gt;&lt;div style=&quot;text-align: left; font-size: 18px;&quot;&gt;&lt;span style=&quot;background-color: initial;&quot;&gt;&lt;font style=&quot;font-size: 18px;&quot;&gt;text : TEXT&lt;/font&gt;&lt;/span&gt;&lt;/div&gt;" style="text;html=1;align=center;verticalAlign=middle;resizable=0;points=[];autosize=1;strokeColor=none;fillColor=none;" vertex="1" parent="QFt0IGW34_CqtT6Z_yx7-8">
          <mxGeometry y="65" width="250" height="100" as="geometry" />
        </mxCell>
        <mxCell id="QFt0IGW34_CqtT6Z_yx7-28" style="edgeStyle=orthogonalEdgeStyle;rounded=0;orthogonalLoop=1;jettySize=auto;html=1;exitX=1;exitY=0.5;exitDx=0;exitDy=0;entryX=0.004;entryY=0.503;entryDx=0;entryDy=0;entryPerimeter=0;endArrow=none;endFill=0;" edge="1" parent="1" source="QFt0IGW34_CqtT6Z_yx7-7" target="QFt0IGW34_CqtT6Z_yx7-15">
          <mxGeometry relative="1" as="geometry" />
        </mxCell>
        <mxCell id="QFt0IGW34_CqtT6Z_yx7-29" value="&lt;font style=&quot;font-size: 18px;&quot;&gt;1,1&lt;/font&gt;" style="edgeLabel;html=1;align=center;verticalAlign=middle;resizable=0;points=[];" vertex="1" connectable="0" parent="QFt0IGW34_CqtT6Z_yx7-28">
          <mxGeometry x="-0.8898" y="1" relative="1" as="geometry">
            <mxPoint as="offset" />
          </mxGeometry>
        </mxCell>
        <mxCell id="QFt0IGW34_CqtT6Z_yx7-34" value="&lt;font style=&quot;font-size: 18px;&quot;&gt;1,N&lt;/font&gt;" style="edgeLabel;html=1;align=center;verticalAlign=middle;resizable=0;points=[];" vertex="1" connectable="0" parent="QFt0IGW34_CqtT6Z_yx7-28">
          <mxGeometry x="0.8439" relative="1" as="geometry">
            <mxPoint as="offset" />
          </mxGeometry>
        </mxCell>
        <mxCell id="QFt0IGW34_CqtT6Z_yx7-12" value="&lt;font style=&quot;font-size: 18px;&quot;&gt;&lt;font style=&quot;font-size: 18px;&quot;&gt;id: INT&lt;br&gt;&lt;/font&gt;id_filiere : INT (FOREIGN KEY)&lt;br style=&quot;border-color: var(--border-color);&quot;&gt;nom : VARCHAR&lt;br&gt;prenom : VARCHAR&lt;br&gt;date de naissacnce : DATETIME&lt;br&gt;pays : VARCHAR&lt;br&gt;email : VARCHAR&lt;br&gt;&lt;/font&gt;" style="text;html=1;align=left;verticalAlign=middle;resizable=0;points=[];autosize=1;strokeColor=none;fillColor=none;" vertex="1" parent="1">
          <mxGeometry x="300" y="400" width="280" height="160" as="geometry" />
        </mxCell>
      </root>
    </mxGraphModel>
  </diagram>
</mxfile>
